<?xml version="1.0" standalone="no"?><!DOCTYPE svg PUBLIC "-//W3C//DTD SVG 1.1//EN" "http://www.w3.org/Graphics/SVG/1.1/DTD/svg11.dtd"><svg font-family="&quot;Source Sans Pro&quot;, &quot;Helvetica Neue&quot;, Helvetica" viewBox="0 0 1960 315" version="1.1" xmlns="http://www.w3.org/2000/svg" xmlns:xlink="http://www.w3.org/1999/xlink"><g id="sd-region-group-1_29903"><svg id="sd-position-axis" y="20"><path d="m 378 18 h 855 l 5 -5 v 10 l 5 -5 h 338.4102857142857" fill="none" stroke="#000000" stroke-width="2"/><text x="378" y="12" font-size="12" fill="#000000" text-anchor="middle">1</text><line x1="378" x2="378" y1="17" y2="26" stroke="#000000" stroke-width="2"/><text x="501.391304347826" y="12" font-size="12" fill="#000000" text-anchor="middle">100</text><line x1="501.391304347826" x2="501.391304347826" y1="17" y2="26" stroke="#000000" stroke-width="2"/><text x="601.1014492753624" y="12" font-size="12" fill="#000000" text-anchor="middle">180</text><line x1="601.1014492753624" x2="601.1014492753624" y1="17" y2="26" stroke="#000000" stroke-width="2"/><text x="700.8115942028985" y="12" font-size="12" fill="#000000" text-anchor="middle">260</text><line x1="700.8115942028985" x2="700.8115942028985" y1="17" y2="26" stroke="#000000" stroke-width="2"/><text x="800.5217391304348" y="12" font-size="12" fill="#000000" text-anchor="middle">340</text><line x1="800.5217391304348" x2="800.5217391304348" y1="17" y2="26" stroke="#000000" stroke-width="2"/><text x="900.231884057971" y="12" font-size="12" fill="#000000" text-anchor="middle">420</text><line x1="900.231884057971" x2="900.231884057971" y1="17" y2="26" stroke="#000000" stroke-width="2"/><text x="999.9420289855072" y="12" font-size="12" fill="#000000" text-anchor="middle">500</text><line x1="999.9420289855072" x2="999.9420289855072" y1="17" y2="26" stroke="#000000" stroke-width="2"/><text x="1099.6521739130435" y="12" font-size="12" fill="#000000" text-anchor="middle">580</text><line x1="1099.6521739130435" x2="1099.6521739130435" y1="17" y2="26" stroke="#000000" stroke-width="2"/><text x="1199.3623188405795" y="12" font-size="12" fill="#000000" text-anchor="middle">660</text><line x1="1199.3623188405795" x2="1199.3623188405795" y1="17" y2="26" stroke="#000000" stroke-width="2"/><text x="1299.1337142857142" y="12" font-size="12" fill="#000000" text-anchor="middle">795</text><line x1="1299.1337142857142" x2="1299.1337142857142" y1="17" y2="26" stroke="#000000" stroke-width="2"/><text x="1399.385142857143" y="12" font-size="12" fill="#000000" text-anchor="middle">965</text><line x1="1399.385142857143" x2="1399.385142857143" y1="17" y2="26" stroke="#000000" stroke-width="2"/><text x="1499.6365714285714" y="12" font-size="12" fill="#000000" text-anchor="middle">1135</text><line x1="1499.6365714285714" x2="1499.6365714285714" y1="17" y2="26" stroke="#000000" stroke-width="2"/><text x="1581.4102857142857" y="12" font-size="12" fill="#000000" text-anchor="middle">1273</text><line x1="1581.4102857142857" x2="1581.4102857142857" y1="17" y2="26" stroke="#000000" stroke-width="2"/></svg><svg id="sd-position-group-NA" y="45"><text x="100" y="44" fill="#000000" text-anchor="end" font-size="21" font-weight="bolder"/><g><line x1="120" x2="123.15903715041047" y1="39" y2="39" stroke-width="2" stroke="#333"/></g><g><rect x="123.17100320022263" y="24" width="254.74523445109224" height="30" rx="5" ry="5" stroke="#ffffff" stroke-opacity="0.8" stroke-width="2" fill="#d8d8d8"/><text x="131.17100320022263" y="39" font-size="16" dominant-baseline="central" fill="#505050">ORF1ab</text></g><g><rect x="378" y="24" width="1204" height="30" rx="5" ry="5" stroke="#ffffff" stroke-opacity="0.8" stroke-width="2" fill="#b2df8a"/><text x="980" y="12" font-size="16" dominant-baseline="central" text-anchor="middle" fill="#33a02c">Spike</text></g><g><rect x="393.3719806763286" y="36" width="364.7729468599033" height="30" rx="5" ry="5" stroke="#ffffff" stroke-opacity="0.8" stroke-width="2" fill="#a6cee3"/><text x="401.3719806763286" y="51" font-size="16" dominant-baseline="central" fill="#1f78b4">NTD</text></g><g><rect x="758.56038647343" y="36" width="285.0048309178743" height="30" rx="5" ry="5" stroke="#ffffff" stroke-opacity="0.8" stroke-width="2" fill="#fb9a99"/><text x="766.56038647343" y="51" font-size="16" dominant-baseline="central" fill="#e31a1c">RBD</text></g><g><rect x="921.8357487922705" y="48" width="89.32367149758466" height="30" rx="5" ry="5" stroke="#ffffff" stroke-opacity="0.8" stroke-width="2" fill="#cab2d6"/><text x="929.8357487922705" y="63" font-size="16" dominant-baseline="central" fill="#6a3d9a">RBM</text></g><g><rect x="1043.9806763285026" y="36" width="68.55072463768101" height="30" rx="5" ry="5" stroke="#ffffff" stroke-opacity="0.8" stroke-width="2" fill="#d8d8d8"/><text x="1051.9806763285026" y="51" font-size="16" dominant-baseline="central" fill="#505050">SD1</text></g><g><rect x="1112.9468599033817" y="36" width="112.58937198067633" height="30" rx="5" ry="5" stroke="#ffffff" stroke-opacity="0.8" stroke-width="2" fill="#d8d8d8"/><text x="1120.9468599033817" y="51" font-size="16" dominant-baseline="central" fill="#505050">SD2</text></g><g><rect x="1225.951690821256" y="36" width="12.04830917874392" height="30" rx="5" ry="5" stroke="#ffffff" stroke-opacity="0.8" stroke-width="2" fill="#fdbf6f"/><text x="1231.9758454106282" y="24" font-size="16" dominant-baseline="central" text-anchor="middle" fill="#ff7f00">S1/S2</text></g><g><rect x="1582.6277372262773" y="24" width="47.19442601194419" height="30" rx="5" ry="5" stroke="#ffffff" stroke-opacity="0.8" stroke-width="2" fill="#d8d8d8"/></g><g><rect x="1631.2488387524882" y="24" width="12.954213669542241" height="30" rx="5" ry="5" stroke="#ffffff" stroke-opacity="0.8" stroke-width="2" fill="#d8d8d8"/></g><g><rect x="1647.1134704711346" y="24" width="38.12076974120805" height="30" rx="5" ry="5" stroke="#ffffff" stroke-opacity="0.8" stroke-width="2" fill="#d8d8d8"/></g><g><rect x="1685.8619774386198" y="24" width="10.557398805574167" height="30" rx="5" ry="5" stroke="#ffffff" stroke-opacity="0.8" stroke-width="2" fill="#d8d8d8"/></g><g><rect x="1696.8188453881885" y="24" width="20.829462508294455" height="30" rx="5" ry="5" stroke="#ffffff" stroke-opacity="0.8" stroke-width="2" fill="#d8d8d8"/></g><g><rect x="1717.4771068347711" y="24" width="7.475779694757648" height="30" rx="5" ry="5" stroke="#ffffff" stroke-opacity="0.8" stroke-width="2" fill="#d8d8d8"/></g><g><rect x="1725.3523556735236" y="24" width="20.829462508294682" height="30" rx="5" ry="5" stroke="#ffffff" stroke-opacity="0.8" stroke-width="2" fill="#d8d8d8"/></g><g><rect x="1747.0378234903783" y="24" width="71.84737889847361" height="30" rx="5" ry="5" stroke="#ffffff" stroke-opacity="0.8" stroke-width="2" fill="#d8d8d8"/><text x="1755.0378234903783" y="39" font-size="16" dominant-baseline="central" fill="#505050">N</text></g><g><rect x="1820.3118779031188" y="24" width="6.619774386197605" height="30" rx="5" ry="5" stroke="#ffffff" stroke-opacity="0.8" stroke-width="2" fill="#d8d8d8"/></g><g><line x1="1826.988719309887" x2="1840" y1="39" y2="39" stroke-width="2" stroke="#333"/></g><g><path d="m 456.2608695652174 21 l 4 4 l 4 -4 m -4 4 v 55 c 0 5 0 5 -5 5 h -14 c -5 0 -5 0 -5 5 v 85" stroke="#000000" fill="none" stroke-width="1"/><text transform="translate(436.2608695652174, 179) rotate(-60)" fill="#000000" dominant-baseline="central" text-anchor="end" font-family="Arial Narrow">A67V</text></g><g><path d="m 458.7536231884058 21 l 4 4 l 4 -4 m -4 4 v 150" stroke="#000000" fill="none" stroke-width="1"/><text transform="translate(462.7536231884058, 179) rotate(-60)" fill="#000000" dominant-baseline="central" text-anchor="end" font-family="Arial Narrow">Δ69-70</text></g><g><path d="m 491.159420289855 21 l 4 4 l 4 -4 m -4 4 v 150" stroke="#000000" fill="none" stroke-width="1"/><text transform="translate(495.159420289855, 179) rotate(-60)" fill="#000000" dominant-baseline="central" text-anchor="end" font-family="Arial Narrow">T95I</text></g><g><path d="m 549.7391304347826 21 l 4 4 l 4 -4 m -4 4 v 55 c 0 5 0 5 -5 5 h -14 c -5 0 -5 0 -5 5 v 85" stroke="#000000" fill="none" stroke-width="1"/><text transform="translate(529.7391304347826, 179) rotate(-60)" fill="#000000" dominant-baseline="central" text-anchor="end" font-family="Arial Narrow">G142D</text></g><g><path d="m 550.9855072463768 21 l 4 4 l 4 -4 m -4 4 v 150" stroke="#000000" fill="none" stroke-width="1"/><text transform="translate(554.9855072463768, 179) rotate(-60)" fill="#000000" dominant-baseline="central" text-anchor="end" font-family="Arial Narrow">Δ143-145</text></g><g><path d="m 635.7391304347826 21 l 4 4 l 4 -4 m -4 4 v 55 c 0 5 0 5 -5 5 h -36.75362318840587 c -5 0 -5 0 -5 5 v 85" stroke="#000000" fill="none" stroke-width="1"/><text transform="translate(592.9855072463768, 179) rotate(-60)" fill="#000000" dominant-baseline="central" text-anchor="end" font-family="Arial Narrow">Δ211</text></g><g><path d="m 636.9855072463768 21 l 4 4 l 4 -4 m -4 4 v 65 c 0 5 0 5 -5 5 h -14 c -5 0 -5 0 -5 5 v 75" stroke="#000000" fill="none" stroke-width="1"/><text transform="translate(616.9855072463768, 179) rotate(-60)" fill="#000000" dominant-baseline="central" text-anchor="end" font-family="Arial Narrow">L212I</text></g><g><path d="m 639.4782608695652 21 l 4 4 l 4 -4 m -4 4 v 150" stroke="#000000" fill="none" stroke-width="1"/><text transform="translate(643.4782608695652, 179) rotate(-60)" fill="#000000" dominant-baseline="central" text-anchor="end" font-family="Arial Narrow">R214Insertion</text></g><g><path d="m 795.2753623188405 21 l 4 4 l 4 -4 m -4 4 v 55 c 0 5 0 5 -5 5 h -41.13043478260852 c -5 0 -5 0 -5 5 v 85" stroke="#000000" fill="none" stroke-width="1"/><text transform="translate(748.144927536232, 179) rotate(-60)" fill="#000000" dominant-baseline="central" text-anchor="end" font-family="Arial Narrow">G339D</text></g><g><path d="m 835.159420289855 21 l 4 4 l 4 -4 m -4 4 v 65 c 0 5 0 5 -5 5 h -57.01449275362302 c -5 0 -5 0 -5 5 v 75" stroke="#000000" fill="none" stroke-width="1"/><text transform="translate(772.144927536232, 179) rotate(-60)" fill="#000000" dominant-baseline="central" text-anchor="end" font-family="Arial Narrow">S371L</text></g><g><path d="m 837.6521739130435 21 l 4 4 l 4 -4 m -4 4 v 75 c 0 5 0 5 -5 5 h -35.50724637681151 c -5 0 -5 0 -5 5 v 65" stroke="#000000" fill="none" stroke-width="1"/><text transform="translate(796.144927536232, 179) rotate(-60)" fill="#000000" dominant-baseline="central" text-anchor="end" font-family="Arial Narrow">S373P</text></g><g><path d="m 840.144927536232 21 l 4 4 l 4 -4 m -4 4 v 85 c 0 5 0 5 -5 5 h -14 c -5 0 -5 0 -5 5 v 55" stroke="#000000" fill="none" stroke-width="1"/><text transform="translate(820.144927536232, 179) rotate(-60)" fill="#000000" dominant-baseline="central" text-anchor="end" font-family="Arial Narrow">S375F</text></g><g><path d="m 892.4927536231885 21 l 4 4 l 4 -4 m -4 4 v 95 c 0 5 0 5 -5 5 h -33.97101449275374 c -5 0 -5 0 -5 5 v 45" stroke="#000000" fill="none" stroke-width="1"/><text transform="translate(852.5217391304348, 179) rotate(-60)" fill="#000000" dominant-baseline="central" text-anchor="end" font-family="Arial Narrow">K417N</text></g><g><path d="m 921.1594202898551 21 l 4 4 l 4 -4 m -4 4 v 105 c 0 5 0 5 -5 5 h -38.63768115942037 c -5 0 -5 0 -5 5 v 35" stroke="#000000" fill="none" stroke-width="1"/><text transform="translate(876.5217391304348, 179) rotate(-60)" fill="#000000" dominant-baseline="central" text-anchor="end" font-family="Arial Narrow">N440K</text></g><g><path d="m 928.6376811594203 21 l 4 4 l 4 -4 m -4 4 v 115 c 0 5 0 5 -5 5 h -22.1159420289855 c -5 0 -5 0 -5 5 v 25" stroke="#000000" fill="none" stroke-width="1"/><text transform="translate(900.5217391304348, 179) rotate(-60)" fill="#000000" dominant-baseline="central" text-anchor="end" font-family="Arial Narrow">G446S</text></g><g><path d="m 967.2753623188406 21 l 4 4 l 4 -4 m -4 4 v 125 c 0 5 0 5 -5 5 h -36.75362318840587 c -5 0 -5 0 -5 5 v 15" stroke="#000000" fill="none" stroke-width="1"/><text transform="translate(924.5217391304348, 179) rotate(-60)" fill="#000000" dominant-baseline="central" text-anchor="end" font-family="Arial Narrow">S477N</text></g><g><path d="m 968.5217391304348 21 l 4 4 l 4 -4 m -4 4 v 135 c 0 5 0 5 -5 5 h -14 c -5 0 -5 0 -5 5 v 5" stroke="#000000" fill="none" stroke-width="1"/><text transform="translate(948.5217391304348, 179) rotate(-60)" fill="#000000" dominant-baseline="central" text-anchor="end" font-family="Arial Narrow">T478K</text></g><g><path d="m 975.9999999999999 21 l 4 4 l 4 -4 m -4 4 v 150" stroke="#000000" fill="none" stroke-width="1"/><text transform="translate(979.9999999999999, 179) rotate(-60)" fill="#000000" dominant-baseline="central" text-anchor="end" font-family="Arial Narrow">E484A</text></g><g><path d="m 987.2173913043478 21 l 4 4 l 4 -4 m -4 4 v 115 c 0 5 0 5 5 5 h 14 c 5 0 5 0 5 5 v 25" stroke="#000000" fill="none" stroke-width="1"/><text transform="translate(1015.2173913043478, 179) rotate(-60)" fill="#000000" dominant-baseline="central" text-anchor="end" font-family="Arial Narrow">Q493K</text></g><g><path d="m 990.9565217391304 21 l 4 4 l 4 -4 m -4 4 v 105 c 0 5 0 5 5 5 h 34.26086956521738 c 5 0 5 0 5 5 v 35" stroke="#000000" fill="none" stroke-width="1"/><text transform="translate(1039.2173913043478, 179) rotate(-60)" fill="#000000" dominant-baseline="central" text-anchor="end" font-family="Arial Narrow">G496S</text></g><g><path d="m 993.4492753623189 21 l 4 4 l 4 -4 m -4 4 v 95 c 0 5 0 5 5 5 h 55.768115942028885 c 5 0 5 0 5 5 v 45" stroke="#000000" fill="none" stroke-width="1"/><text transform="translate(1063.2173913043478, 179) rotate(-60)" fill="#000000" dominant-baseline="central" text-anchor="end" font-family="Arial Narrow">Q498R</text></g><g><path d="m 997.1884057971015 21 l 4 4 l 4 -4 m -4 4 v 85 c 0 5 0 5 5 5 h 76.02898550724626 c 5 0 5 0 5 5 v 55" stroke="#000000" fill="none" stroke-width="1"/><text transform="translate(1087.2173913043478, 179) rotate(-60)" fill="#000000" dominant-baseline="central" text-anchor="end" font-family="Arial Narrow">N501Y</text></g><g><path d="m 1002.1739130434783 21 l 4 4 l 4 -4 m -4 4 v 75 c 0 5 0 5 5 5 h 95.0434782608695 c 5 0 5 0 5 5 v 65" stroke="#000000" fill="none" stroke-width="1"/><text transform="translate(1111.2173913043478, 179) rotate(-60)" fill="#000000" dominant-baseline="central" text-anchor="end" font-family="Arial Narrow">Y505H</text></g><g><path d="m 1054.5217391304348 21 l 4 4 l 4 -4 m -4 4 v 65 c 0 5 0 5 5 5 h 66.695652173913 c 5 0 5 0 5 5 v 75" stroke="#000000" fill="none" stroke-width="1"/><text transform="translate(1135.2173913043478, 179) rotate(-60)" fill="#000000" dominant-baseline="central" text-anchor="end" font-family="Arial Narrow">T547K</text></g><g><path d="m 1138.0289855072463 21 l 4 4 l 4 -4 m -4 4 v 55 c 0 5 0 5 5 5 h 14 c 5 0 5 0 5 5 v 85" stroke="#000000" fill="none" stroke-width="1"/><text transform="translate(1166.0289855072463, 179) rotate(-60)" fill="#000000" dominant-baseline="central" text-anchor="end" font-family="Arial Narrow">D614G</text></g><g><path d="m 1189.1304347826087 21 l 4 4 l 4 -4 m -4 4 v 150" stroke="#000000" fill="none" stroke-width="1"/><text transform="translate(1193.1304347826087, 179) rotate(-60)" fill="#000000" dominant-baseline="central" text-anchor="end" font-family="Arial Narrow">H655Y</text></g><g><path d="m 1219.0434782608697 21 l 4 4 l 4 -4 m -4 4 v 150" stroke="#000000" fill="none" stroke-width="1"/><text transform="translate(1223.0434782608697, 179) rotate(-60)" fill="#000000" dominant-baseline="central" text-anchor="end" font-family="Arial Narrow">N679K</text></g><g><path d="m 1221.536231884058 21 l 4 4 l 4 -4 m -4 4 v 55 c 0 5 0 5 5 5 h 14 c 5 0 5 0 5 5 v 85" stroke="#000000" fill="none" stroke-width="1"/><text transform="translate(1249.536231884058, 179) rotate(-60)" fill="#000000" dominant-baseline="central" text-anchor="end" font-family="Arial Narrow">P681H</text></g><g><path d="m 1276.8525714285715 21 l 4 4 l 4 -4 m -4 4 v 150" stroke="#000000" fill="none" stroke-width="1"/><text transform="translate(1280.8525714285715, 179) rotate(-60)" fill="#000000" dominant-baseline="central" text-anchor="end" font-family="Arial Narrow">N764K</text></g><g><path d="m 1295.7234285714285 21 l 4 4 l 4 -4 m -4 4 v 150" stroke="#000000" fill="none" stroke-width="1"/><text transform="translate(1299.7234285714285, 179) rotate(-60)" fill="#000000" dominant-baseline="central" text-anchor="end" font-family="Arial Narrow">D796Y</text></g><g><path d="m 1331.1062857142858 21 l 4 4 l 4 -4 m -4 4 v 150" stroke="#000000" fill="none" stroke-width="1"/><text transform="translate(1335.1062857142858, 179) rotate(-60)" fill="#000000" dominant-baseline="central" text-anchor="end" font-family="Arial Narrow">N856K</text></g><g><path d="m 1388.8982857142855 21 l 4 4 l 4 -4 m -4 4 v 150" stroke="#000000" fill="none" stroke-width="1"/><text transform="translate(1392.8982857142855, 179) rotate(-60)" fill="#000000" dominant-baseline="central" text-anchor="end" font-family="Arial Narrow">Q954H</text></g><g><path d="m 1397.744 21 l 4 4 l 4 -4 m -4 4 v 65 c 0 5 0 5 5 5 h 14 c 5 0 5 0 5 5 v 75" stroke="#000000" fill="none" stroke-width="1"/><text transform="translate(1425.744, 179) rotate(-60)" fill="#000000" dominant-baseline="central" text-anchor="end" font-family="Arial Narrow">N969K</text></g><g><path d="m 1404.8205714285714 21 l 4 4 l 4 -4 m -4 4 v 55 c 0 5 0 5 5 5 h 30.92342857142853 c 5 0 5 0 5 5 v 85" stroke="#000000" fill="none" stroke-width="1"/><text transform="translate(1449.744, 179) rotate(-60)" fill="#000000" dominant-baseline="central" text-anchor="end" font-family="Arial Narrow">L981F</text></g></svg></g></svg>
